<svg width="24" height="24" viewBox="0 0 24 24" fill="none" xmlns="http://www.w3.org/2000/svg">
<path fill-rule="evenodd" clip-rule="evenodd" d="M19 6H5C4.44772 6 4 6.44772 4 7V19C4 19.5523 4.44772 20 5 20H19C19.5523 20 20 19.5523 20 19V7C20 6.44771 19.5523 6 19 6ZM5 4C3.34315 4 2 5.34315 2 7V19C2 20.6569 3.34315 22 5 22H19C20.6569 22 22 20.6569 22 19V7C22 5.34315 20.6569 4 19 4H5Z" fill="#A58B83"/>
<path fill-rule="evenodd" clip-rule="evenodd" d="M7 2C6.44772 2 6 2.44772 6 3V7C6 7.55228 6.44772 8 7 8C7.55228 8 8 7.55228 8 7V3C8 2.44772 7.55228 2 7 2ZM17 2C16.4477 2 16 2.44772 16 3V7C16 7.55228 16.4477 8 17 8C17.5523 8 18 7.55228 18 7V3C18 2.44772 17.5523 2 17 2Z" fill="#A58B83"/>
<path d="M3 9H22V11H3V9Z" fill="#A58B83"/>
<path d="M8 13.5C8 14.3284 7.32843 15 6.5 15C5.67157 15 5 14.3284 5 13.5C5 12.6716 5.67157 12 6.5 12C7.32843 12 8 12.6716 8 13.5Z" fill="#A58B83"/>
<path d="M13 13.5C13 14.3284 12.3284 15 11.5 15C10.6716 15 10 14.3284 10 13.5C10 12.6716 10.6716 12 11.5 12C12.3284 12 13 12.6716 13 13.5Z" fill="#A58B83"/>
<path d="M13 17.5C13 18.3284 12.3284 19 11.5 19C10.6716 19 10 18.3284 10 17.5C10 16.6716 10.6716 16 11.5 16C12.3284 16 13 16.6716 13 17.5Z" fill="#A58B83"/>
<path d="M18 17.5C18 18.3284 17.3284 19 16.5 19C15.6716 19 15 18.3284 15 17.5C15 16.6716 15.6716 16 16.5 16C17.3284 16 18 16.6716 18 17.5Z" fill="#A58B83"/>
</svg>
