<svg width="35" height="34" viewBox="0 0 35 34" fill="none" xmlns="http://www.w3.org/2000/svg">
<path d="M10.5833 31.1667C12.1481 31.1667 13.4167 29.8981 13.4167 28.3333C13.4167 26.7685 12.1481 25.5 10.5833 25.5C9.01853 25.5 7.75 26.7685 7.75 28.3333C7.75 29.8981 9.01853 31.1667 10.5833 31.1667Z" fill="white"/>
<path d="M24.75 31.1667C26.3148 31.1667 27.5833 29.8981 27.5833 28.3333C27.5833 26.7685 26.3148 25.5 24.75 25.5C23.1852 25.5 21.9167 26.7685 21.9167 28.3333C21.9167 29.8981 23.1852 31.1667 24.75 31.1667Z" fill="white"/>
<path d="M5.55029 2.98288C4.85048 2.63298 3.99953 2.91663 3.64963 3.61643C3.29973 4.31624 3.58338 5.16719 4.28318 5.51709L5.70482 6.22791C6.14364 6.44732 6.43769 6.87815 6.48211 7.36676L7.52163 18.8014C7.72064 20.9905 9.55606 22.6667 11.7542 22.6667H24.0295C25.9271 22.6667 27.5947 21.4087 28.116 19.5842L29.8463 13.5284C30.3634 11.7184 29.0044 9.91665 27.1219 9.91665H9.55894L9.30381 7.11024C9.17056 5.64444 8.28838 4.35193 6.97192 3.6937L5.55029 2.98288Z" fill="white"/>
</svg>
