<svg width="34" height="34" viewBox="0 0 34 34" fill="none" xmlns="http://www.w3.org/2000/svg">
<path d="M21.25 18.4167C19.6852 18.4167 18.4167 19.6852 18.4167 21.25V29.75C18.4167 31.3148 19.6852 32.5833 21.25 32.5833H29.75C31.3148 32.5833 32.5834 31.3148 32.5834 29.75V21.25C32.5834 19.6852 31.3148 18.4167 29.75 18.4167H27.625C27.2338 18.4167 26.9167 18.7338 26.9167 19.125V21.25C26.9167 22.0324 26.2824 22.6667 25.5 22.6667C24.7176 22.6667 24.0834 22.0324 24.0834 21.25V19.125C24.0834 18.7338 23.7662 18.4167 23.375 18.4167H21.25Z" fill="white"/>
<path d="M4.25002 18.4167C2.68521 18.4167 1.41669 19.6852 1.41669 21.25V29.75C1.41669 31.3148 2.68521 32.5833 4.25002 32.5833H12.75C14.3148 32.5833 15.5834 31.3148 15.5834 29.75V21.25C15.5834 19.6852 14.3148 18.4167 12.75 18.4167H10.625C10.2338 18.4167 9.91669 18.7338 9.91669 19.125V21.25C9.91669 22.0324 9.28242 22.6667 8.50002 22.6667C7.71762 22.6667 7.08335 22.0324 7.08335 21.25V19.125C7.08335 18.7338 6.76622 18.4167 6.37502 18.4167H4.25002Z" fill="white"/>
<path d="M12.75 1.41667C11.1852 1.41667 9.91669 2.6852 9.91669 4.25001V12.75C9.91669 14.3148 11.1852 15.5833 12.75 15.5833H21.25C22.8148 15.5833 24.0834 14.3148 24.0834 12.75V4.25001C24.0834 2.6852 22.8148 1.41667 21.25 1.41667H19.125C18.7338 1.41667 18.4167 1.7338 18.4167 2.12501V4.25001C18.4167 5.03241 17.7824 5.66667 17 5.66667C16.2176 5.66667 15.5834 5.03241 15.5834 4.25001V2.12501C15.5834 1.7338 15.2662 1.41667 14.875 1.41667H12.75Z" fill="white"/>
</svg>
