<svg width="35" height="34" viewBox="0 0 35 34" fill="none" xmlns="http://www.w3.org/2000/svg">
<path d="M28.6667 26.6334V12.702L30.7712 13.9647C31.4421 14.3673 32.3123 14.1497 32.7148 13.4788C33.1174 12.8079 32.8998 11.9377 32.2289 11.5352L25.1145 7.26654L19.6728 3.98798L19.6728 3.98794C19.2772 3.7496 18.9736 3.56668 18.7163 3.42914C18.6562 3.39555 18.5953 3.36431 18.5335 3.33542C18.3194 3.23093 18.1338 3.16137 17.9431 3.11935C17.5414 3.03083 17.1253 3.03083 16.7236 3.11935C16.5324 3.16148 16.3463 3.23129 16.1315 3.33624C16.0708 3.36465 16.011 3.39534 15.952 3.42828C15.6944 3.56591 15.3904 3.74907 14.994 3.98789L14.9939 3.98794L9.54405 7.27145L2.43783 11.5352C1.76692 11.9377 1.54937 12.8079 1.95192 13.4788C2.35446 14.1497 3.22466 14.3673 3.89557 13.9647L5.99999 12.7021V26.6334C5.99999 28.2202 5.99999 29.0136 6.3088 29.6197C6.58045 30.1528 7.01389 30.5863 7.54702 30.8579C8.1531 31.1667 8.94651 31.1667 10.5333 31.1667L13.0833 31.1667V22.6667C13.0833 20.3195 14.9861 18.4167 17.3333 18.4167C19.6805 18.4167 21.5833 20.3195 21.5833 22.6667V31.1667L24.1333 31.1667C25.7201 31.1667 26.5135 31.1667 27.1196 30.8579C27.6528 30.5863 28.0862 30.1528 28.3578 29.6197C28.6667 29.0136 28.6667 28.2202 28.6667 26.6334Z" fill="white"/>
</svg>
