<svg width="34" height="34" viewBox="0 0 34 34" fill="none" xmlns="http://www.w3.org/2000/svg">
<path fill-rule="evenodd" clip-rule="evenodd" d="M26.6588 20.0102C25.7855 18.9977 24.2856 19.0499 23.1128 19.6918C21.2979 20.6852 19.2149 21.25 17 21.25C14.7851 21.25 12.7021 20.6852 10.8871 19.6918C9.71429 19.0499 8.21439 18.9977 7.34114 20.0102C5.41479 22.2437 4.24997 25.1525 4.24997 28.3333V29.75C4.24997 31.3148 5.5185 32.5833 7.0833 32.5833H26.9166C28.4814 32.5833 29.75 31.3148 29.75 29.75V28.3333C29.75 25.1525 28.5851 22.2437 26.6588 20.0102Z" fill="white"/>
<path d="M24.0833 8.50001C24.0833 12.412 20.912 15.5833 17 15.5833C13.0879 15.5833 9.91663 12.412 9.91663 8.50001C9.91663 4.58799 13.0879 1.41667 17 1.41667C20.912 1.41667 24.0833 4.58799 24.0833 8.50001Z" fill="white"/>
</svg>
