<svg width="29" height="29" viewBox="0 0 29 29" fill="none" xmlns="http://www.w3.org/2000/svg">
<path fill-rule="evenodd" clip-rule="evenodd" d="M24.1667 25.375C26.1687 25.375 27.7917 23.752 27.7917 21.75L27.7917 19.3333C27.7917 17.3313 26.1687 15.7083 24.1667 15.7083L21.75 15.7083C19.748 15.7083 18.125 17.3313 18.125 19.3333L18.125 21.75C18.125 23.752 19.748 25.375 21.75 25.375L24.1667 25.375ZM21.75 22.9583L24.1667 22.9583C24.834 22.9583 25.375 22.4173 25.375 21.75L25.375 19.3333C25.375 18.666 24.834 18.125 24.1667 18.125L21.75 18.125C21.0827 18.125 20.5417 18.666 20.5417 19.3333L20.5417 21.75C20.5417 22.4173 21.0827 22.9583 21.75 22.9583Z" fill="#7198D7"/>
<path fill-rule="evenodd" clip-rule="evenodd" d="M24.1667 13.2917C26.1687 13.2917 27.7917 11.6687 27.7917 9.66667L27.7917 7.25C27.7917 5.24797 26.1687 3.625 24.1667 3.625L21.75 3.625C19.748 3.625 18.125 5.24797 18.125 7.25L18.125 9.66667C18.125 11.6687 19.748 13.2917 21.75 13.2917L24.1667 13.2917ZM21.75 10.875L24.1667 10.875C24.834 10.875 25.375 10.334 25.375 9.66667L25.375 7.25C25.375 6.58266 24.834 6.04167 24.1667 6.04167L21.75 6.04167C21.0827 6.04167 20.5417 6.58266 20.5417 7.25L20.5417 9.66667C20.5417 10.334 21.0827 10.875 21.75 10.875Z" fill="#7198D7"/>
<path fill-rule="evenodd" clip-rule="evenodd" d="M10.875 15.7083C10.875 17.7104 9.25205 19.3333 7.25002 19.3333L4.83335 19.3333C2.83132 19.3333 1.20835 17.7104 1.20835 15.7083L1.20835 13.2917C1.20835 11.2896 2.83132 9.66667 4.83335 9.66667L7.25002 9.66667C9.25205 9.66667 10.875 11.2896 10.875 13.2917L10.875 15.7083ZM7.25002 16.9167L4.83335 16.9167C4.16601 16.9167 3.62502 16.3757 3.62502 15.7083L3.62502 13.2917C3.62502 12.6243 4.16601 12.0833 4.83335 12.0833L7.25002 12.0833C7.91736 12.0833 8.45835 12.6243 8.45835 13.2917L8.45835 15.7083C8.45835 16.3757 7.91736 16.9167 7.25002 16.9167Z" fill="#7198D7"/>
<path d="M18.125 19.3333L16.9167 19.3333C16.2493 19.3333 15.7083 18.7923 15.7083 18.125L15.7083 10.875C15.7083 10.2077 16.2493 9.66667 16.9167 9.66667L18.125 9.66667L18.125 7.25L16.9167 7.25C14.9146 7.25 13.2917 8.87297 13.2917 10.875L13.2917 13.2917L10.875 13.2917L10.875 15.7083L13.2917 15.7083L13.2917 18.125C13.2917 20.127 14.9146 21.75 16.9167 21.75L18.125 21.75L18.125 19.3333Z" fill="#7198D7"/>
</svg>
